<svg width="24" height="24" viewBox="0 0 24 24" fill="none" xmlns="http://www.w3.org/2000/svg">
<g clip-path="url(#clip0_264_2596)">
<path d="M7.52964 4.84042C7.40988 4.84005 7.29174 4.86359 7.18216 4.90967C7.07257 4.95575 6.97374 5.02343 6.89145 5.10875C6.80916 5.19408 6.74508 5.29533 6.70295 5.40656C6.66083 5.5178 6.64152 5.63678 6.64614 5.75654C6.65076 5.8763 6.67923 5.99442 6.72988 6.10399C6.78052 6.21356 6.85233 6.31236 6.94109 6.3946C7.02984 6.47685 7.13376 6.54089 7.24675 6.58296C7.35974 6.62503 7.47953 6.64429 7.59909 6.63961L16.2455 6.48784L5.5614 17.1719C5.39438 17.339 5.30192 17.5669 5.30439 17.8055C5.30685 18.0442 5.40402 18.2741 5.57452 18.4446C5.74503 18.6151 5.97489 18.7123 6.21356 18.7147C6.45223 18.7172 6.68014 18.6247 6.84717 18.4577L17.5329 7.77193L17.3812 16.4217C17.3765 16.5413 17.3958 16.6611 17.4379 16.7741C17.4799 16.8871 17.544 16.991 17.6262 17.0797C17.7085 17.1685 17.8073 17.2403 17.9168 17.2909C18.0264 17.3416 18.1445 17.3701 18.2643 17.3747C18.384 17.3793 18.503 17.36 18.6143 17.3179C18.7255 17.2757 18.8267 17.2117 18.9121 17.1294C18.9974 17.0471 19.0651 16.9482 19.1111 16.8387C19.1572 16.7291 19.1808 16.6109 19.1804 16.4912L19.3664 5.89904C19.3711 5.63608 19.2891 5.3771 19.1331 5.16197C19.0602 5.0495 18.9636 4.95406 18.8503 4.8825C18.6369 4.73013 18.3813 4.6501 18.1218 4.65441L7.52964 4.84042Z" fill="#CF0000"/>
</g>
<defs>
<clipPath id="clip0_264_2596">
<rect width="24" height="24" fill="white"/>
</clipPath>
</defs>
</svg>
