<svg width="43" height="43" viewBox="0 0 43 43" fill="none" xmlns="http://www.w3.org/2000/svg">
<g clip-path="url(#clip0_264_2610)">
<path fill-rule="evenodd" clip-rule="evenodd" d="M7.2251 12.2928C6.16417 12.5226 5.23771 13.1632 4.64953 14.0736C4.06135 14.9841 3.85964 16.0898 4.08876 17.1475L7.23023 31.6498C7.45935 32.7076 8.10054 33.6307 9.01275 34.2161C9.92495 34.8015 11.0335 35.0013 12.0944 34.7715L35.3685 29.7299C36.4295 29.5 37.3559 28.8595 37.9441 27.949C38.5323 27.0386 38.734 25.9329 38.5049 24.8752L36.2273 14.361L11.8622 19.6389C11.5728 19.7016 11.2705 19.6471 11.0217 19.4874C10.773 19.3278 10.5981 19.076 10.5356 18.7876C10.4731 18.4991 10.5281 18.1975 10.6885 17.9492C10.8489 17.7009 11.1016 17.5262 11.391 17.4636L35.7561 12.1856L35.3634 10.3728C35.1343 9.31511 34.4931 8.392 33.5809 7.80658C32.6687 7.22116 31.5602 7.02139 30.4993 7.25121L7.2251 12.2928Z" fill="#1E1E1E"/>
</g>
<defs>
<clipPath id="clip0_264_2610">
<rect width="36" height="36" fill="white" transform="translate(0 7.71875) rotate(-12.2225)"/>
</clipPath>
</defs>
</svg>
