<svg width="16" height="20" viewBox="0 0 16 20" fill="none" xmlns="http://www.w3.org/2000/svg">
<path fill-rule="evenodd" clip-rule="evenodd" d="M7.262 19.7281C7.262 19.7281 0 13.7354 0 7.83872C0 5.75976 0.842855 3.76595 2.34315 2.29591C3.84344 0.825863 5.87827 0 8 0C10.1217 0 12.1566 0.825863 13.6569 2.29591C15.1571 3.76595 16 5.75976 16 7.83872C16 13.7354 8.738 19.7281 8.738 19.7281C8.334 20.0926 7.669 20.0887 7.262 19.7281ZM8 11.2682C8.45963 11.2682 8.91475 11.1795 9.33939 11.0071C9.76403 10.8348 10.1499 10.5821 10.4749 10.2637C10.7999 9.94524 11.0577 9.56719 11.2336 9.15111C11.4095 8.73503 11.5 8.28908 11.5 7.83872C11.5 7.38836 11.4095 6.94241 11.2336 6.52633C11.0577 6.11025 10.7999 5.73219 10.4749 5.41374C10.1499 5.09529 9.76403 4.84267 9.33939 4.67033C8.91475 4.49798 8.45963 4.40928 8 4.40928C7.07174 4.40928 6.1815 4.77059 5.52513 5.41374C4.86875 6.05688 4.5 6.92917 4.5 7.83872C4.5 8.74826 4.86875 9.62055 5.52513 10.2637C6.1815 10.9068 7.07174 11.2682 8 11.2682Z" fill="#121212"/>
</svg>
