<svg width="200" height="40" viewBox="0 0 200 40" fill="none" xmlns="http://www.w3.org/2000/svg">
<path d="M40.8134 22.7749C40.8134 15.5107 37.0171 9.13392 31.301 5.51754C31.2442 5.31425 31.1887 5.09224 31.2315 4.92238C31.2408 4.88627 31.2508 4.85217 31.2602 4.8194C31.3184 4.62013 31.3846 4.39411 31.0776 4.16474C30.9553 4.07312 30.8182 3.99956 30.6865 3.92868C30.5855 3.87452 30.4899 3.82303 30.4009 3.76418C30.1675 3.61038 29.9408 3.44253 29.7463 3.29742L29.6252 3.20714C29.2507 2.92695 28.8635 2.63673 28.4556 2.40269C27.7341 1.98875 26.9169 1.62364 26.0262 1.31737C25.1101 1.0024 24.1431 0.754313 23.0705 0.55905C21.9912 0.362449 20.8256 0.228039 19.6073 0.158493C19.0689 0.127732 18.5106 0.109008 17.9475 0.103658C11.6416 0.039462 9.53046 1.90918 9.31112 2.12183C7.06158 3.23122 5.32895 4.93308 4.16138 7.17995C3.10616 9.21082 2.72165 11.2972 2.59326 12.8132C0.942215 15.7595 0 19.1566 0 22.7736C0 27.8464 1.85166 32.4866 4.91502 36.0562C4.99326 35.9974 5.08755 35.9459 5.19855 35.9031C7.36919 35.0638 8.7454 33.2169 9.53582 31.7577C9.61205 31.9497 9.75515 32.1249 9.98519 32.1877C10.5523 32.3415 11.1327 31.751 11.2972 31.5665C12.1358 30.6256 12.7971 29.555 13.2639 28.3834C13.415 28.0043 13.5701 27.5536 13.5755 27.0821C13.5875 26.1091 12.9777 25.7534 12.2715 25.3421L12.2595 25.3354C11.7252 25.0238 11.237 24.5985 10.8485 24.105C10.5168 23.6837 10.2634 23.1902 10.0186 22.7128C9.96045 22.5991 9.90226 22.4854 9.84274 22.3731C9.47963 21.6823 9.2262 21.0938 9.04498 20.5214C8.71062 19.4662 8.50801 17.9729 9.44087 16.8522C9.96982 16.2162 10.7589 15.8518 11.6048 15.8518C12.872 15.8518 14.0128 16.6509 14.5117 17.888C14.5271 17.9268 14.5424 17.9656 14.5578 18.005C14.6153 18.1542 14.6749 18.3086 14.7645 18.4511C14.7818 18.4785 14.8012 18.5059 14.8213 18.5313C15.0092 18.7667 15.2633 18.8536 15.5087 18.9379C15.5462 18.9506 15.5836 18.964 15.6218 18.9773C16.0631 19.1365 16.3185 19.7417 16.5312 20.1188C16.8248 20.6398 17.0835 21.1801 17.3056 21.7351C17.7496 22.8452 18.0465 24.0141 18.1816 25.2024C18.425 27.3376 18.1542 29.4888 18.3153 31.628C18.3902 32.6257 18.55 33.3633 19.2308 34.121C19.8092 34.7643 20.5354 35.2598 21.2443 35.7473C22.3316 36.4949 23.5092 37.1021 24.6988 37.6685C26.8728 38.7023 29.1357 39.6004 31.5511 39.8344C32.7207 39.9474 34.1263 40.0016 35.0531 39.1704C35.7044 38.5859 36.101 37.7768 36.4815 36.9884C36.9302 36.0602 37.7226 35.0792 37.4244 34.0427C39.5663 30.8142 40.8147 26.9417 40.8147 22.7763L40.8134 22.7749ZM33.701 11.4423C33.8287 11.6857 33.9899 11.9512 34.1611 12.2327C34.694 13.1087 35.2972 14.1004 35.1274 14.824C35.0745 14.8962 35.0177 14.9691 34.9588 15.0406C34.9441 15.058 34.9308 15.0768 34.9167 15.0961C34.6145 15.4686 34.5182 15.9688 34.4152 16.6328C34.3904 16.7927 34.3216 16.9618 34.2487 17.1411C34.0922 17.5256 33.9143 17.9616 34.2279 18.3334C34.4393 18.5841 34.6713 18.7814 34.896 18.9727C35.2437 19.2689 35.6035 19.5752 35.9318 20.1061C36.0823 20.3495 36.2347 20.5916 36.3872 20.8337C36.5671 21.1199 36.7537 21.4155 36.9329 21.7084C37.076 21.9417 37.2345 22.1684 37.3869 22.3878C37.4371 22.4593 37.4866 22.5309 37.5361 22.6024C37.5775 22.6619 37.6203 22.7181 37.6624 22.7716C37.7139 22.8378 37.7621 22.9 37.8062 22.9682L38.0984 23.4216C38.2135 23.6001 38.3512 23.8777 38.3512 24.1839C38.3512 24.3023 38.3305 24.4166 38.289 24.5243C38.2322 24.6714 38.1252 24.7884 38.0021 24.8379C37.835 24.9048 37.641 24.858 37.4565 24.7971C37.3348 24.757 37.2097 24.7296 37.088 24.7028C37.0058 24.6848 36.9208 24.6661 36.8399 24.644C36.2936 24.4942 35.7372 24.5042 35.0879 24.6761C34.9461 24.7135 34.8124 24.769 34.6827 24.8219C34.5743 24.8667 34.472 24.9088 34.3664 24.9409C34.2012 24.9911 34.0521 24.9442 33.8969 24.7938C33.8849 24.7817 33.8729 24.7697 33.8608 24.7577C33.792 24.6875 33.7064 24.5992 33.578 24.5811C33.4583 24.5637 33.3366 24.6166 33.2677 24.7155C33.1781 24.8439 33.1941 25.0733 33.3024 25.197C33.487 25.4083 33.7839 25.524 34.0755 25.4986C34.2834 25.4805 34.4827 25.4257 34.6746 25.3729C34.8305 25.3301 34.9903 25.296 35.1441 25.2632C35.2618 25.2385 35.3788 25.2131 35.4972 25.1836C35.8021 25.1087 36.1512 25.0987 36.5644 25.1536C36.6286 25.1622 36.6942 25.1723 36.7523 25.1923C36.6059 25.2505 36.4454 25.2813 36.2775 25.314L36.2321 25.3227C36.099 25.3488 36.0535 25.4357 36.0549 25.508C36.0562 25.5702 36.0936 25.6444 36.1946 25.6772C36.0682 25.7266 35.9245 25.732 35.8322 25.7286C35.7432 25.7253 35.6543 25.7186 35.5654 25.7113C35.2544 25.6865 34.9328 25.6611 34.6131 25.7895C34.3202 25.9065 34.1618 26.0342 33.8154 26.3144C33.4623 26.5993 32.9293 27.03 31.8594 27.7769C31.1566 28.2671 30.6978 28.7853 30.4551 29.3611C30.3541 29.6011 30.312 29.8519 30.2712 30.0947C30.2358 30.306 30.2023 30.5052 30.1334 30.6952C30.0612 30.8944 29.8927 31.3612 29.6433 31.5458C29.0046 32.0172 28.2263 31.0917 27.8077 30.5942C27.7515 30.5273 27.6953 30.4611 27.6391 30.3949C27.4131 30.1294 27.1797 29.8546 26.9738 29.5704C26.8019 29.3337 26.6434 29.0789 26.4903 28.8321C26.4101 28.7031 26.3298 28.5733 26.2469 28.4456C25.9928 28.0524 25.7614 27.7562 25.5207 27.5128C25.5147 27.5067 24.9442 26.945 24.6514 26.945C24.638 26.945 24.6253 26.9464 24.6126 26.9484C24.547 26.9617 24.4955 27.0045 24.4708 27.0667C24.4139 27.2098 24.5423 27.3616 24.8727 27.6712C24.9128 27.7087 24.9543 27.7475 24.9676 27.7629C25.2224 28.0524 25.407 28.4055 25.5849 28.7472C25.6437 28.8602 25.7026 28.9726 25.7641 29.0836C25.8243 29.1926 25.9065 29.3076 25.9934 29.4293C26.2255 29.7536 26.4883 30.1221 26.3652 30.4297C26.2756 30.653 25.9861 30.7446 25.7587 30.7172C25.5487 30.6918 25.314 30.6116 25.0867 30.534C24.961 30.4912 24.8306 30.4464 24.7068 30.4123C24.6192 30.3882 24.5403 30.3554 24.4654 30.318C24.2722 30.2204 24.1117 30.0846 23.9452 29.9422C23.8369 29.8499 23.7252 29.7543 23.5995 29.6647C23.4524 29.5597 23.2865 29.4828 23.1267 29.4079C22.8692 29.2882 22.6258 29.1752 22.4914 28.9619C22.4018 28.8201 22.369 28.6462 22.3349 28.4623C22.3209 28.3888 22.3068 28.3132 22.2888 28.2383C22.2072 27.904 22.0507 27.6024 21.8989 27.3101C21.828 27.1737 21.7552 27.0333 21.6923 26.8935C21.5612 26.602 21.485 26.2736 21.4114 25.956C21.382 25.8283 21.3513 25.6959 21.3172 25.5675C21.3125 25.5501 21.3085 25.534 21.3038 25.5167C20.9714 24.2535 20.7133 23.1809 20.5341 22.0755C20.0713 19.2141 20.2893 17.87 20.5 16.57L20.5287 16.3914C20.6324 15.7441 21.3967 15.2713 22.0715 14.8547C22.7342 14.4448 23.3607 14.0576 23.3139 13.5267C23.2738 13.0666 22.565 11.5934 21.7451 9.88689C20.9734 8.28199 19.9162 6.08394 20.0091 5.78235C20.183 5.21662 22.04 4.1868 24.2408 4.1868C24.2575 4.1868 24.2749 4.1868 24.2922 4.1868C25.6243 4.19616 26.7136 4.32188 27.7201 4.58067C29.8205 5.33632 31.412 7.12111 31.961 7.96034C32.3067 8.48929 32.6859 9.30645 33.053 10.0969C33.2817 10.589 33.497 11.0538 33.7003 11.4416L33.701 11.4423ZM36.4775 31.2509C36.3745 31.4715 36.1759 31.5538 35.889 31.6146C35.5359 31.6895 35.1829 31.6354 34.8539 31.5658C34.795 31.5531 34.7362 31.5404 34.678 31.527C34.3744 31.4595 34.0581 31.3906 33.7378 31.394C33.6034 31.3953 33.5445 31.4568 33.5191 31.5076C33.497 31.5518 33.4616 31.6688 33.6141 31.7925C33.6883 31.8527 33.7652 31.9182 33.8154 31.9945C33.8622 32.0653 33.8809 32.1409 33.8662 32.2024C33.8474 32.282 33.7746 32.3562 33.6415 32.4298C33.4195 32.5535 33.1687 32.619 32.829 32.6431C32.6712 32.6538 32.5415 32.621 32.3642 32.5261C31.9944 32.3268 31.7323 32.0139 31.6454 31.6668C31.6033 31.4996 31.6019 31.3171 31.6414 31.1378C31.854 30.1709 33.281 29.3818 34.4406 28.8896L34.4961 28.8662C34.7596 28.7546 35.0578 28.6275 35.3193 28.5499C35.443 28.5132 35.5874 28.471 35.7292 28.4389C35.7887 28.4256 35.8482 28.4088 35.9077 28.3928C35.994 28.3687 36.0763 28.3466 36.1585 28.3326C36.1732 28.3299 36.2067 28.3246 36.2247 28.3293C36.2321 28.3313 36.2354 28.3333 36.2354 28.3333C36.2448 28.3486 36.2354 28.4169 36.2 28.465C36.1338 28.5546 36.0361 28.6262 35.9398 28.6904C35.7927 28.7887 35.6068 28.8676 35.3728 28.9324L35.1608 28.9899C35.0304 29.0254 34.9007 29.0608 34.7709 29.0976C34.3075 29.228 33.8755 29.452 33.5144 29.6533C32.9327 29.9776 32.4813 30.5554 32.4625 30.5795L32.1683 30.9593L32.6143 30.7801C32.6197 30.7781 33.1801 30.5547 34.0213 30.3842C34.3196 30.324 34.565 30.3127 34.7816 30.3033C35.1829 30.2852 35.5299 30.2692 35.9519 29.9455L36.6788 31.0516C36.5604 31.075 36.5076 31.1853 36.4775 31.2509Z" fill="black"/>
<path d="M14.8487 22.5502C14.7043 22.4579 14.6167 22.2486 14.5565 22.0875C14.4816 21.8862 14.4214 21.6715 14.2917 21.5077C14.2014 21.394 14.0837 21.3118 13.9774 21.2168C13.9172 21.1633 13.8584 21.1025 13.8135 21.0329C13.7788 20.9801 13.752 20.9219 13.7386 20.8591C13.6952 20.6618 13.7848 20.4665 13.8129 20.2686C13.8416 20.0653 13.8035 19.856 13.7587 19.6534C13.5922 18.9078 13.3341 18.106 12.9021 17.4901C12.7403 17.2601 12.539 17.0641 12.3096 16.9224C11.8409 16.6321 11.2872 16.5913 10.7903 16.7732C10.4586 16.8943 10.0026 17.1818 9.87084 17.5643C9.85412 17.6131 9.83472 17.6854 9.83271 17.7375C9.83004 17.8144 9.92099 17.8412 9.97114 17.8191C10.0266 17.7944 10.0908 17.7121 10.143 17.674C10.4413 17.4573 10.7355 17.2774 11.1039 17.2487C11.4497 17.2219 11.8034 17.3176 12.1057 17.5162C12.4935 17.7716 12.6453 18.2625 12.6908 18.7285C12.7162 18.9927 12.7095 19.2602 12.6707 19.5203C12.6313 19.7838 12.5925 20.0472 12.553 20.3121C12.4868 20.7574 12.4855 21.182 12.7229 21.5813C12.8305 21.7625 12.9757 21.917 13.1428 22.0306C13.3113 22.1457 13.5013 22.2032 13.6537 22.3509C13.8109 22.5034 13.9011 22.7214 14.0409 22.8926C14.2021 23.0905 14.4294 23.2209 14.6655 23.2524C14.7752 23.2671 14.8902 23.2597 14.9885 23.2076C15.0868 23.1554 15.1677 23.0544 15.1817 22.9334C15.2098 22.6853 14.9978 22.6452 14.8494 22.5502H14.8487Z" fill="black"/>
<path d="M30.0619 14.731C29.7489 14.7945 29.4446 14.8968 29.1571 15.0353C28.8381 15.1891 28.6148 15.4004 28.3513 15.6324C27.7816 16.1339 27.2118 16.6361 26.6421 17.1377C26.505 17.2587 26.3539 17.4179 26.3947 17.5964C26.4234 17.7201 26.5431 17.8071 26.6682 17.8318C26.7932 17.8559 26.9216 17.8285 27.044 17.7937C27.8264 17.5683 28.4657 17.038 29.1324 16.5954C29.8853 16.0965 30.6517 15.7936 31.5685 15.8611C31.7283 15.8731 31.8868 15.8945 32.0439 15.928C32.1937 15.9601 32.3562 15.9928 32.4879 16.0744C32.5194 16.0938 32.5488 16.1172 32.5722 16.1467C32.6451 16.2376 32.6444 16.366 32.6304 16.4817C32.615 16.6061 32.6043 16.7411 32.6411 16.8628C32.6765 16.9805 32.7267 17.0775 32.8009 17.1765C32.9106 17.3216 33.0122 17.458 33.0604 17.6372C33.0704 17.676 33.0784 17.7161 33.0844 17.7556C33.0884 17.787 33.0831 17.8365 33.0965 17.8652C33.1025 17.8779 33.1185 17.8873 33.1312 17.8813C33.1379 17.8779 33.142 17.8713 33.146 17.8652C33.2175 17.7475 33.267 17.6098 33.277 17.4714C33.2864 17.3423 33.265 17.2112 33.2122 17.0935C33.156 16.9678 33.067 16.8575 33.0202 16.7278C32.9594 16.5579 32.9935 16.3974 33.045 16.2376C33.1058 16.0483 33.1908 15.8604 33.166 15.6592C33.1419 15.4619 33.0804 15.2767 32.9473 15.1235C32.6611 14.7959 32.163 14.7638 31.7591 14.719C31.196 14.6561 30.6216 14.6186 30.0625 14.7323L30.0619 14.731Z" fill="black"/>
<path d="M32.2613 18.8275C32.183 18.7051 32.0526 18.6182 31.9028 18.5894C31.7551 18.5614 31.6246 18.6035 31.5096 18.6409C31.5083 18.6409 31.507 18.6416 31.5063 18.6423C31.5404 18.5955 31.5685 18.5433 31.5899 18.4871C31.6454 18.3427 31.6581 18.1815 31.6267 18.0337C31.6099 17.9555 31.5819 17.882 31.5431 17.8144C31.515 17.7656 31.5103 17.7502 31.5157 17.7281C31.5217 17.7027 31.5424 17.6793 31.5658 17.6713C31.7283 17.6171 31.8433 17.474 31.8734 17.2888C31.8962 17.149 31.957 17.0026 32.0446 16.8769C32.072 16.8374 32.068 16.7839 32.0346 16.7498C32.0011 16.7151 31.9476 16.7097 31.9075 16.7358C31.7096 16.8655 31.4956 16.9892 31.2729 17.1042C30.7273 17.3858 30.1013 17.6258 29.3604 17.8385C29.2989 17.8565 29.2367 17.8739 29.1752 17.8913C28.8067 17.995 28.4262 18.102 28.0778 18.2838C27.9173 18.3674 27.8404 18.4851 27.8672 18.6062C27.9013 18.7626 28.0751 18.8048 28.1413 18.8208C28.2851 18.8556 28.4296 18.891 28.5733 18.9265C28.8629 18.998 29.1625 19.0723 29.4587 19.1385C29.9977 19.2588 30.4136 19.319 30.8062 19.3337H30.8195C30.986 19.3397 31.1432 19.3217 31.3177 19.2996L31.3679 19.2936C31.5404 19.2729 31.7557 19.2475 31.8808 19.0682L31.8881 19.0569C31.8881 19.0569 31.8921 19.0515 31.8935 19.0488C31.9008 19.0542 31.9102 19.0629 31.9182 19.0743C31.9844 19.1639 32.0092 19.2829 31.9844 19.3912C31.9597 19.5002 31.8861 19.5965 31.7878 19.6487C31.739 19.6748 31.7203 19.7356 31.7464 19.7844C31.7664 19.8219 31.8072 19.8419 31.8467 19.8373C31.852 19.8393 31.8574 19.8413 31.8627 19.8433C31.8875 19.852 31.9149 19.862 31.945 19.862C31.9496 19.862 31.9543 19.862 31.959 19.8613C32.0125 19.8553 32.06 19.8239 32.0928 19.8018C32.2298 19.7109 32.3328 19.5557 32.3622 19.3972C32.397 19.21 32.3549 18.976 32.2606 18.8288L32.2613 18.8275ZM28.5814 18.5306C28.7432 18.4878 28.9084 18.445 29.0735 18.4056C29.1952 18.3768 29.3209 18.3534 29.4427 18.3307C29.5389 18.3126 29.6346 18.2952 29.7302 18.2745C29.8372 18.2517 29.9428 18.221 30.0452 18.1909C30.0953 18.1762 30.1455 18.1615 30.201 18.1461C30.2692 18.1234 30.3387 18.106 30.413 18.0872C30.4504 18.0779 30.4878 18.0685 30.5246 18.0585C30.5393 18.0545 30.5547 18.0498 30.5694 18.0451C30.6417 18.0231 30.6885 18.0117 30.7226 18.0311C30.7313 18.0358 30.7386 18.0424 30.744 18.0491C30.76 18.0692 30.7694 18.1 30.7761 18.1274C30.8048 18.2397 30.8108 18.3587 30.7928 18.4731L30.7894 18.4938C30.7841 18.5239 30.7781 18.5587 30.7787 18.5961C30.7787 18.6617 30.7995 18.7192 30.8369 18.7613C30.8416 18.7667 30.8463 18.7713 30.8516 18.776C30.4337 18.8268 30.0044 18.8208 29.5751 18.7573C29.4279 18.7359 29.2862 18.7038 29.1357 18.6697L29.0541 18.6516C28.9779 18.6349 28.9003 18.6129 28.8254 18.5921C28.7459 18.5701 28.6643 18.5473 28.5814 18.5293V18.5306Z" fill="black"/>
<path d="M28.693 19.5016C28.5874 19.4494 28.471 19.4414 28.368 19.434C28.3159 19.43 28.2664 19.4267 28.2236 19.418C28.1661 19.4059 28.1072 19.3919 28.0497 19.3765C27.9655 19.3531 27.8805 19.3244 27.7983 19.2916C27.5241 19.1833 27.2653 19.0255 27.0279 18.8242L26.9998 18.8001C26.8641 18.6837 26.6956 18.5393 26.4796 18.5674C26.4308 18.5741 26.3893 18.6075 26.3733 18.6543C26.3572 18.7011 26.3693 18.7526 26.404 18.7881C26.6575 19.0442 26.9336 19.2508 27.2299 19.4053L26.8521 19.3297C26.7892 19.317 26.7257 19.3525 26.7043 19.4133C26.6822 19.4742 26.7083 19.541 26.7645 19.5718C27.0808 19.7436 27.4171 19.8613 27.7648 19.9215L27.821 19.9316C27.934 19.9516 28.0584 19.9744 28.1848 19.9744C28.2283 19.9744 28.2717 19.9717 28.3145 19.9657C28.3333 19.963 28.354 19.9617 28.376 19.9596C28.4837 19.951 28.6462 19.9382 28.7559 19.8072C28.7973 19.7577 28.8134 19.6975 28.8007 19.6387C28.788 19.5798 28.7479 19.5283 28.6923 19.5009L28.693 19.5016Z" fill="black"/>
<path d="M49.8698 19.6079C50.8608 18.4718 51.2714 16.7318 51.9722 11.1969L52.6249 5.92809H62.4616V19.6079H63.9602V25.2124H61.1811L60.7457 22.6773H51.8512L51.4159 25.2124H48.6608V19.6079H49.8691H49.8698ZM56.0086 8.87643L55.8153 10.8585C55.2596 16.2964 54.607 18.3507 53.1325 19.6079H58.5704V8.87643H56.0086Z" fill="#221F20"/>
<path d="M72.2502 23.0879C67.5371 23.0879 64.7332 19.8974 64.7332 14.2903C64.7332 8.68317 67.5371 5.49275 72.2502 5.49275C76.9633 5.49275 79.7672 8.68317 79.7672 14.2903C79.7672 19.8974 76.9633 23.0879 72.2502 23.0879ZM72.2502 8.44176C70.0749 8.44176 68.9147 10.0366 68.9147 14.291C68.9147 18.5453 70.099 20.1643 72.2502 20.1643C74.4015 20.1643 75.5858 18.5446 75.5858 14.291C75.5858 10.0373 74.4255 8.44176 72.2502 8.44176Z" fill="#221F20"/>
<path d="M92.1337 8.97339H85.8979V11.9465H87.6379C91.8675 11.9465 94.3571 13.6383 94.3571 17.1671C94.3571 21.6628 90.8765 22.6779 86.3326 22.6779H81.8857V5.92875H92.5202L92.1337 8.97406V8.97339ZM87.3718 14.7256H85.8973V19.7771H87.4199C89.1599 19.7771 90.175 18.9793 90.175 17.1912C90.175 15.5963 89.208 14.7256 87.3711 14.7256H87.3718Z" fill="#221F20"/>
<path d="M101.847 17.1183H100.034V22.6773H96.0216V5.92809H101.314C105.858 5.92809 108.493 7.71689 108.493 11.3901C108.493 15.3295 105.81 17.1183 101.847 17.1183ZM101.363 8.78014H100.034V14.2181H101.508C103.321 14.2181 104.36 13.3481 104.36 11.3901C104.36 9.62606 103.369 8.78014 101.363 8.78014Z" fill="#221F20"/>
<path d="M117.312 23.0879C112.599 23.0879 109.795 19.8974 109.795 14.2903C109.795 8.68317 112.599 5.49275 117.312 5.49275C122.025 5.49275 124.829 8.68317 124.829 14.2903C124.829 19.8974 122.025 23.0879 117.312 23.0879ZM117.312 8.44176C115.137 8.44176 113.976 10.0366 113.976 14.291C113.976 18.5453 115.161 20.1643 117.312 20.1643C119.463 20.1643 120.647 18.5446 120.647 14.291C120.647 10.0373 119.487 8.44176 117.312 8.44176Z" fill="#221F20"/>
<path d="M130.96 8.78013V12.7683H136.108V15.5722H130.96V19.7777H137.268V22.6779H126.947V5.92875H137.268L136.857 8.7808H130.96V8.78013Z" fill="#221F20"/>
<path d="M144.187 23.0879C141.674 23.0879 139.789 22.266 138.411 20.7434L140.586 18.665C141.602 19.656 142.714 20.1395 143.994 20.1395C145.662 20.1395 146.749 19.2455 146.749 17.7228C146.749 16.031 145.686 15.2332 143.849 15.2332H141.964L142.399 12.3811H143.874C145.324 12.3811 146.315 11.7044 146.315 10.3509C146.315 9.14258 145.469 8.4177 143.994 8.4177C142.834 8.4177 141.771 8.90117 140.78 9.77117L138.846 7.71689C140.393 6.26646 142.109 5.49343 144.502 5.49343C147.983 5.49343 150.424 7.33037 150.424 9.8922C150.424 11.8983 149.167 13.2037 146.871 13.6871V13.7841C149.312 14.0255 150.931 15.4759 150.931 17.8927C150.931 21.0102 148.297 23.0892 144.188 23.0892L144.187 23.0879Z" fill="#221F20"/>
<path d="M160.373 15.3542H158.85L155.321 22.6773H151.044L155.66 13.5173L151.502 5.92809H155.442L158.947 12.5263H160.372V5.92809H164.046V12.5263H165.448L169.001 5.92809H172.916L168.734 13.5173L173.351 22.6773H169L165.495 15.3542H164.045V22.6773H160.371V15.3542H160.373Z" fill="#221F20"/>
<path d="M178.782 8.7801V12.7683H183.931V15.5722H178.782V19.7777H185.09V22.6779H174.77V5.92873H185.09L184.68 8.78077H178.782V8.7801Z" fill="#221F20"/>
<path d="M193.087 22.6772H187.238V5.92806H192.845C196.326 5.92806 199.298 6.94316 199.298 10.2058C199.298 12.2119 197.752 13.4203 196.398 13.7346V13.8315C198.042 14.1699 199.999 15.1369 199.999 17.7709C199.999 21.6381 196.737 22.6772 193.087 22.6772H193.087ZM192.677 8.75536H191.251V12.6225H192.798C194.49 12.6225 195.215 12.018 195.215 10.6164C195.215 9.31106 194.417 8.75536 192.677 8.75536ZM193.087 15.2572H191.25V19.777H192.918C194.465 19.777 195.842 19.4146 195.842 17.6017C195.842 15.7889 194.755 15.2572 193.087 15.2572Z" fill="#221F20"/>
<path d="M78.5716 35.0899C77.6541 35.0899 76.9667 34.7904 76.4638 34.2347L77.2576 33.4763C77.6281 33.8381 78.034 34.0146 78.5014 34.0146C79.1099 34.0146 79.5071 33.6883 79.5071 33.1326C79.5071 32.5154 79.1193 32.2245 78.4486 32.2245H77.7605L77.919 31.184H78.4573C78.9862 31.184 79.348 30.9372 79.348 30.4431C79.348 30.0024 79.0391 29.7376 78.5014 29.7376C78.0781 29.7376 77.6903 29.9141 77.3285 30.2318L76.623 29.4821C77.1874 28.9532 77.814 28.671 78.6866 28.671C79.9565 28.671 80.8472 29.341 80.8472 30.2759C80.8472 31.0081 80.3885 31.4842 79.5506 31.6608V31.6962C80.4413 31.7845 81.0325 32.3135 81.0325 33.1955C81.0325 34.333 80.0709 35.0919 78.5716 35.0919V35.0899Z" fill="#221F20"/>
<path d="M84.6977 33.6261H82.9249L82.6073 34.9401H81.0639L82.9423 28.8281H84.7151L86.5848 34.9401H85.0147L84.697 33.6261H84.6977ZM83.1543 32.5675H84.4596L83.8337 29.9836H83.7896L83.1543 32.5675Z" fill="#221F20"/>
<path d="M88.9828 32.2853H88.4445V34.9401H86.9806V28.8281H88.4445V31.2267H88.956L90.4111 28.8281H91.8489L90.1644 31.5972L92.0167 34.9401H90.4024L88.9828 32.2853Z" fill="#221F20"/>
<path d="M95.7969 33.1145C95.268 34.5081 94.5799 34.9755 93.1248 35.0899L92.9308 34.0935C93.7861 34.0052 94.1218 33.7939 94.3946 33.3265H93.9185L92.0488 28.8287H93.5567L94.8092 32.4358H94.8447L95.9293 28.8287H97.4112L95.7969 33.1152V33.1145Z" fill="#221F20"/>
<path d="M101.061 34.9401V29.9482H99.2709V34.9401H97.8071V28.8281H102.525V34.9401H101.062H101.061Z" fill="#221F20"/>
<path d="M106.559 33.6261H104.786L104.469 34.9401H102.925L104.804 28.8281H106.577L108.446 34.9401H106.876L106.558 33.6261H106.559ZM105.016 32.5675H106.321L105.695 29.9836H105.651L105.016 32.5675Z" fill="#221F20"/>
<path d="M110.307 29.8686V31.3237H112.185V32.3468H110.307V33.8815H112.608V34.9401H108.842V28.8281H112.608L112.459 29.8686H110.307Z" fill="#221F20"/>
<path d="M118.055 34.9401C118.002 33.9343 117.949 32.938 117.923 31.9322C117.905 31.2796 117.905 30.5828 117.931 30.1508H117.896L116.97 34.3135H115.567L114.597 30.1508H114.562C114.614 30.645 114.632 31.4207 114.606 32.1261L114.491 34.9394H113.062L113.521 28.8274H115.365L116.282 32.9373H116.318L117.182 28.8274H119.026L119.493 34.9394H118.056L118.055 34.9401Z" fill="#221F20"/>
<path d="M122.429 34.9401V28.8281H123.867V30.8743C123.867 32.1442 123.752 32.859 123.655 33.4321H123.69L125.383 28.8281H127.121V34.9401H125.683V32.938C125.683 31.747 125.789 30.9358 125.895 30.3447H125.86L124.201 34.9401H122.428H122.429Z" fill="#221F20"/>
<path d="M132.907 29.9482V34.9401H131.443V29.9482H129.864V28.8281H134.557L134.407 29.9482H132.908H132.907Z" fill="#221F20"/>
<path d="M137.444 33.6261H135.671L135.354 34.9401H133.81L135.689 28.8281H137.462L139.331 34.9401H137.761L137.444 33.6261H137.444ZM135.901 32.5675H137.206L136.58 29.9836H136.536L135.901 32.5675Z" fill="#221F20"/>
<path d="M144.589 34.9401C144.536 33.9343 144.483 32.938 144.456 31.9322C144.439 31.2796 144.439 30.5828 144.465 30.1508H144.43L143.503 34.3135H142.101L141.131 30.1508H141.095C141.148 30.645 141.166 31.4207 141.139 32.1261L141.025 34.9394H139.596L140.055 28.8274H141.898L142.816 32.9373H142.851L143.716 28.8274H145.56L146.027 34.9394H144.589L144.589 34.9401Z" fill="#221F20"/>
<path d="M149.165 35.0899C147.445 35.0899 146.422 33.9257 146.422 31.8794C146.422 29.8331 147.445 28.6689 149.165 28.6689C150.885 28.6689 151.908 29.8331 151.908 31.8794C151.908 33.9257 150.885 35.0899 149.165 35.0899ZM149.165 29.7455C148.372 29.7455 147.948 30.3273 147.948 31.8801C147.948 33.4328 148.38 34.0233 149.165 34.0233C149.95 34.0233 150.382 33.4321 150.382 31.8801C150.382 30.328 149.959 29.7455 149.165 29.7455Z" fill="#221F20"/>
<path d="M155.188 32.2679H154.633L153.345 34.9401H151.784L153.469 31.5972L151.951 28.8281H153.389L154.668 31.2361H155.188V28.8281H156.529V31.2361H157.04L158.337 28.8281H159.766L158.24 31.5972L159.924 34.9401H158.337L157.058 32.2679H156.529V34.9401H155.188V32.2679Z" fill="#221F20"/>
<path d="M160.354 34.9401V28.8281H161.792V30.8743C161.792 32.1442 161.678 32.859 161.58 33.4321H161.615L163.309 28.8281H165.046V34.9401H163.608V32.938C163.608 31.747 163.714 30.9358 163.82 30.3447H163.785L162.126 34.9401H160.354H160.354Z" fill="#221F20"/>
<path d="M170.76 34.9401C170.707 33.9343 170.654 32.938 170.628 31.9322C170.61 31.2796 170.61 30.5828 170.636 30.1508H170.601L169.675 34.3135H168.272L167.302 30.1508H167.267C167.32 30.645 167.338 31.4207 167.311 32.1261L167.196 34.9394H165.767L166.226 28.8274H168.07L168.987 32.9373H169.023L169.887 28.8274H171.731L172.198 34.9394H170.761L170.76 34.9401Z" fill="#221F20"/>
<path d="M200 31.1478H178.848V32.611H200V31.1478Z" fill="#221F20"/>
<path d="M69.8134 31.1478H48.6615V32.611H69.8134V31.1478Z" fill="#221F20"/>
</svg>
